<?xml version="1.0" encoding="UTF-8" standalone="no"?>
<svg
   xmlns:dc="http://purl.org/dc/elements/1.1/"
   xmlns:cc="http://creativecommons.org/ns#"
   xmlns:rdf="http://www.w3.org/1999/02/22-rdf-syntax-ns#"
   xmlns:svg="http://www.w3.org/2000/svg"
   xmlns="http://www.w3.org/2000/svg"
   xmlns:xlink="http://www.w3.org/1999/xlink"
   width="143.29851mm"
   height="92.653107mm"
   viewBox="0 0 143.2985 92.653107"
   version="1.1"
   id="svg8">
  <defs
     id="defs2">
    <linearGradient
       id="linearGradient5159">
      <stop
         style="stop-color:#ffcc00;stop-opacity:1;"
         offset="0"
         id="stop5155" />
      <stop
         style="stop-color:#d4aa00;stop-opacity:1"
         offset="1"
         id="stop5157" />
    </linearGradient>
    <radialGradient
       xlink:href="#linearGradient4522"
       id="radialGradient4493"
       cx="-158.35692"
       cy="84.840485"
       fx="-158.35692"
       fy="84.840485"
       r="51.167912"
       gradientTransform="matrix(0.17561674,0.56227222,-0.76079093,0.2376199,193.58299,-10.838717)"
       gradientUnits="userSpaceOnUse" />
    <linearGradient
       id="linearGradient4522">
      <stop
         id="stop4518"
         offset="0"
         style="stop-color:#8cc33a;stop-opacity:1" />
      <stop
         id="stop4520"
         offset="1"
         style="stop-color:#3f7c04;stop-opacity:1" />
    </linearGradient>
    <radialGradient
       xlink:href="#linearGradient4522"
       id="radialGradient4503"
       cx="-156.20721"
       cy="18.985952"
       fx="-156.20721"
       fy="18.985952"
       r="30.546034"
       gradientTransform="matrix(-0.95888613,-0.51462538,0.41772229,-0.77832951,-116.16365,-113.54457)"
       gradientUnits="userSpaceOnUse" />
    <radialGradient
       xlink:href="#linearGradient4522"
       id="radialGradient4515"
       cx="-78.378532"
       cy="72.782593"
       fx="-78.378532"
       fy="72.782593"
       r="33.710247"
       gradientTransform="matrix(1.0634854,0,0,0.87628058,192.76062,-103.46759)"
       gradientUnits="userSpaceOnUse" />
    <radialGradient
       xlink:href="#linearGradient5159"
       id="radialGradient5161"
       cx="84.248665"
       cy="114.12057"
       fx="84.248665"
       fy="114.12057"
       r="13.53467"
       gradientTransform="matrix(1.3570747,0.06489803,-0.04068861,0.85088606,-40.444975,-120.39514)"
       gradientUnits="userSpaceOnUse" />
    <radialGradient
       xlink:href="#linearGradient5159"
       id="radialGradient4551"
       gradientUnits="userSpaceOnUse"
       gradientTransform="matrix(1.2395728,0.55616792,-0.34871509,0.77721326,-57.385718,-156.10356)"
       cx="84.248665"
       cy="114.12057"
       fx="84.248665"
       fy="114.12057"
       r="13.53467" />
    <radialGradient
       xlink:href="#linearGradient5159"
       id="radialGradient4648"
       gradientUnits="userSpaceOnUse"
       gradientTransform="matrix(1.2395728,0.55616792,-0.34871509,0.77721326,-57.385718,-210.60776)"
       cx="84.248665"
       cy="114.12057"
       fx="84.248665"
       fy="114.12057"
       r="13.53467" />
    <radialGradient
       xlink:href="#linearGradient4522"
       id="radialGradient4493-1"
       cx="-158.35692"
       cy="84.840485"
       fx="-158.35692"
       fy="84.840485"
       r="51.167912"
       gradientTransform="matrix(0.1661216,0.53187162,-0.71965693,0.22477241,157.33857,79.847374)"
       gradientUnits="userSpaceOnUse" />
    <radialGradient
       xlink:href="#linearGradient4522"
       id="radialGradient4515-8"
       cx="-78.378532"
       cy="72.782593"
       fx="-78.378532"
       fy="72.782593"
       r="33.710247"
       gradientTransform="matrix(1.0059855,0,0,0.82890236,156.56067,-7.7733005)"
       gradientUnits="userSpaceOnUse" />
    <radialGradient
       xlink:href="#linearGradient4522"
       id="radialGradient4503-1"
       cx="-156.20721"
       cy="18.985952"
       fx="-156.20721"
       fy="18.985952"
       r="30.546034"
       gradientTransform="matrix(-0.90704164,-0.48680092,0.39513713,-0.73624725,-135.66087,-17.305434)"
       gradientUnits="userSpaceOnUse" />
    <radialGradient
       xlink:href="#linearGradient5159"
       id="radialGradient5161-5"
       cx="84.248665"
       cy="114.12057"
       fx="84.248665"
       fy="114.12057"
       r="13.53467"
       gradientTransform="matrix(1.2837012,0.06138916,-0.03848868,0.80488085,-64.036105,-23.785607)"
       gradientUnits="userSpaceOnUse" />
  </defs>
  <metadata
     id="metadata5">
    <rdf:RDF>
      <cc:Work
         rdf:about="">
        <dc:format>image/svg+xml</dc:format>
        <dc:type
           rdf:resource="http://purl.org/dc/dcmitype/StillImage" />
        <dc:title></dc:title>
      </cc:Work>
    </rdf:RDF>
  </metadata>
  <g
     transform="translate(4.8466855,-0.37438545)"
     id="g5674">
    <g
       id="g5541"
       transform="translate(-4.8466851,94.752694)">
      <path
         id="path4549"
         d="m 26.101639,-20.203417 c -3.527348,-11.15966 -11.77942,-10.56974 -17.306863,-8.48934 -6.16395,2.31995 -11.491611,2.70844 -7.300458,11.67783 1.062548,2.95781 7.491961,14.7768208 16.635345,9.2122604 9.143405,-5.5645604 8.622588,-9.0701904 7.971976,-12.4007504 z"
         style="opacity:1;fill:url(#radialGradient4551);fill-opacity:1;stroke:none;stroke-width:0.26458332;stroke-miterlimit:4;stroke-dasharray:none;stroke-dashoffset:0;stroke-opacity:1" />
      <g
         id="text4573"
         style="font-style:normal;font-variant:normal;font-weight:normal;font-stretch:normal;font-size:3.7703402px;line-height:1.25;font-family:Consolas;-inkscape-font-specification:Consolas;font-variant-ligatures:normal;font-variant-caps:normal;font-variant-numeric:normal;font-feature-settings:normal;text-align:start;writing-mode:lr-tb;text-anchor:start;opacity:1;fill:#1a1a1a;fill-opacity:1;stroke:#ff0000;stroke-width:0.52916664;stroke-linecap:round;stroke-miterlimit:4;stroke-dasharray:none;stroke-dashoffset:0;stroke-opacity:1"
         transform="matrix(1.0070441,0,0,0.99300518,-13.824012,-131.75772)"
         aria-label="EXTERNAL STATE">
        <path
           id="path4589"
           style="font-style:normal;font-variant:normal;font-weight:normal;font-stretch:normal;line-height:0.80000001;font-family:'Acherus Grotesque';-inkscape-font-specification:'Acherus Grotesque';text-align:center;text-anchor:middle;fill:#1a1a1a;stroke:none;stroke-width:0.52916664"
           d="m 19.028674,113.43259 c 0.04524,0 0.05656,-0.0151 0.05656,-0.0603 v -0.1395 c 0,-0.0452 -0.01131,-0.0603 -0.05656,-0.0603 h -1.44027 v -0.94258 h 1.372403 c 0.04524,0 0.06033,-0.0151 0.06033,-0.0603 v -0.1395 c 0,-0.0452 -0.01508,-0.0603 -0.06033,-0.0603 h -1.372403 v -0.91619 h 1.44027 c 0.04147,0 0.05656,-0.0151 0.05656,-0.0603 v -0.13951 c 0,-0.0452 -0.01508,-0.0603 -0.05656,-0.0603 h -1.677802 c -0.04524,0 -0.06032,0.0151 -0.06032,0.0603 v 2.51859 c 0,0.0452 0.01508,0.0603 0.06032,0.0603 z" />
        <path
           id="path4591"
           style="font-style:normal;font-variant:normal;font-weight:normal;font-stretch:normal;line-height:0.80000001;font-family:'Acherus Grotesque';-inkscape-font-specification:'Acherus Grotesque';text-align:center;text-anchor:middle;fill:#1a1a1a;stroke:none;stroke-width:0.52916664"
           d="m 20.58494,112.35804 0.825705,1.01422 c 0.0377,0.0452 0.04901,0.0603 0.09049,0.0603 h 0.22245 c 0.0377,0 0.05655,-0.0151 0.02639,-0.0603 l -0.99537,-1.25175 0.99537,-1.26684 c 0.03393,-0.0452 0.01131,-0.0603 -0.02639,-0.0603 h -0.21868 c -0.0377,0 -0.05278,0.0113 -0.09049,0.0603 l -0.829475,1.02554 -0.829474,-1.02554 c -0.03016,-0.0452 -0.04901,-0.0603 -0.09049,-0.0603 h -0.218679 c -0.04147,0 -0.05655,0.0151 -0.02639,0.0603 l 0.99914,1.26684 -0.995369,1.25175 c -0.03016,0.0452 -0.0075,0.0603 0.03016,0.0603 h 0.21868 c 0.04147,0 0.05655,-0.0151 0.09049,-0.0603 z" />
        <path
           id="path4593"
           style="font-style:normal;font-variant:normal;font-weight:normal;font-stretch:normal;line-height:0.80000001;font-family:'Acherus Grotesque';-inkscape-font-specification:'Acherus Grotesque';text-align:center;text-anchor:middle;fill:#1a1a1a;stroke:none;stroke-width:0.52916664"
           d="m 21.938375,110.79335 c -0.04524,0 -0.06033,0.0151 -0.06033,0.0603 v 0.15082 c 0,0.0452 0.01131,0.0603 0.06033,0.0603 h 0.901111 v 2.30745 c 0,0.0452 0.01131,0.0603 0.06032,0.0603 h 0.180977 c 0.04524,0 0.05656,-0.0151 0.05656,-0.0603 v -2.30745 h 0.904881 c 0.04524,0 0.05656,-0.0151 0.05656,-0.0603 v -0.15082 c 0,-0.0452 -0.0075,-0.0603 -0.05656,-0.0603 z" />
        <path
           id="path4595"
           style="font-style:normal;font-variant:normal;font-weight:normal;font-stretch:normal;line-height:0.80000001;font-family:'Acherus Grotesque';-inkscape-font-specification:'Acherus Grotesque';text-align:center;text-anchor:middle;fill:#1a1a1a;stroke:none;stroke-width:0.52916664"
           d="m 26.237976,113.43259 c 0.04524,0 0.05656,-0.0151 0.05656,-0.0603 v -0.1395 c 0,-0.0452 -0.01131,-0.0603 -0.05656,-0.0603 h -1.44027 v -0.94258 h 1.372404 c 0.04524,0 0.06033,-0.0151 0.06033,-0.0603 v -0.1395 c 0,-0.0452 -0.01508,-0.0603 -0.06033,-0.0603 h -1.372404 v -0.91619 h 1.44027 c 0.04147,0 0.05656,-0.0151 0.05656,-0.0603 v -0.13951 c 0,-0.0452 -0.01508,-0.0603 -0.05656,-0.0603 h -1.677801 c -0.04524,0 -0.06033,0.0151 -0.06033,0.0603 v 2.51859 c 0,0.0452 0.01508,0.0603 0.06033,0.0603 z" />
        <path
           id="path4597"
           style="font-style:normal;font-variant:normal;font-weight:normal;font-stretch:normal;line-height:0.80000001;font-family:'Acherus Grotesque';-inkscape-font-specification:'Acherus Grotesque';text-align:center;text-anchor:middle;fill:#1a1a1a;stroke:none;stroke-width:0.52916664"
           d="m 28.778302,111.58512 c 0,-0.6108 -0.486374,-0.79177 -0.916193,-0.79177 h -0.897341 c -0.04524,0 -0.06032,0.0151 -0.06032,0.0603 v 2.51859 c 0,0.0528 0.01508,0.0603 0.06032,0.0603 h 0.177206 c 0.04524,0 0.06032,-0.0113 0.06032,-0.0603 v -0.97275 h 0.674891 l 0.693743,0.97275 c 0.02639,0.0377 0.05655,0.0603 0.101799,0.0603 h 0.177206 c 0.04524,0 0.07541,-0.0226 0.04524,-0.0716 l -0.708824,-0.99537 c 0.350642,-0.0943 0.591944,-0.33179 0.591944,-0.78046 z m -1.576003,0.55801 v -1.0934 h 0.640958 c 0.388345,0 0.644728,0.15836 0.644728,0.53539 0,0.3431 -0.196057,0.55801 -0.644728,0.55801 z" />
        <path
           id="path4599"
           style="font-style:normal;font-variant:normal;font-weight:normal;font-stretch:normal;line-height:0.80000001;font-family:'Acherus Grotesque';-inkscape-font-specification:'Acherus Grotesque';text-align:center;text-anchor:middle;fill:#1a1a1a;stroke:none;stroke-width:0.52916664"
           d="m 29.73208,111.34382 1.753208,2.10762 c 0.02262,0.0226 0.0377,0.0302 0.05656,0.0302 h 0.01885 c 0.02262,0 0.03016,-0.004 0.03016,-0.0302 v -2.59777 c 0,-0.049 -0.01131,-0.0603 -0.05655,-0.0603 h -0.180976 c -0.04525,0 -0.06033,0.0113 -0.06033,0.0603 v 2.01337 l -1.756978,-2.09631 c -0.01508,-0.0189 -0.02639,-0.0264 -0.04902,-0.0264 h -0.01885 c -0.02639,0 -0.03393,0.004 -0.03393,0.0302 v 2.59776 c 0,0.0452 0.01508,0.0603 0.06033,0.0603 h 0.177206 c 0.04524,0 0.06032,-0.0151 0.06032,-0.0603 z" />
        <path
           id="path4601"
           style="font-style:normal;font-variant:normal;font-weight:normal;font-stretch:normal;line-height:0.80000001;font-family:'Acherus Grotesque';-inkscape-font-specification:'Acherus Grotesque';text-align:center;text-anchor:middle;fill:#1a1a1a;stroke:none;stroke-width:0.52916664"
           d="m 33.322917,111.24579 0.55424,1.22913 h -1.11225 l 0.55424,-1.22913 z m 0.04902,-0.46375 c -0.01508,-0.0302 -0.02639,-0.0528 -0.04524,-0.0528 h -0.01131 c -0.02262,0 -0.03016,0.0226 -0.04901,0.0528 l -1.229131,2.59022 c -0.01508,0.0339 0,0.0603 0.03393,0.0603 h 0.21868 c 0.04147,0 0.05655,-0.0151 0.07918,-0.0603 l 0.294087,-0.64096 h 1.315848 l 0.294087,0.64096 c 0.02262,0.0452 0.0377,0.0603 0.07541,0.0603 h 0.218679 c 0.0377,0 0.05279,-0.0264 0.0377,-0.0603 z" />
        <path
           id="path4603"
           style="font-style:normal;font-variant:normal;font-weight:normal;font-stretch:normal;line-height:0.80000001;font-family:'Acherus Grotesque';-inkscape-font-specification:'Acherus Grotesque';text-align:center;text-anchor:middle;fill:#1a1a1a;stroke:none;stroke-width:0.52916664"
           d="m 35.332096,113.17243 v -2.31876 c 0,-0.0452 -0.01508,-0.0603 -0.06032,-0.0603 H 35.09457 c -0.04524,0 -0.06033,0.0151 -0.06033,0.0603 v 2.51859 c 0,0.0452 0.01508,0.0603 0.06033,0.0603 h 1.534528 c 0.04525,0 0.05656,-0.0151 0.05656,-0.0603 v -0.1395 c 0,-0.0452 -0.01131,-0.0603 -0.05656,-0.0603 z" />
        <path
           id="path4605"
           style="font-style:normal;font-variant:normal;font-weight:normal;font-stretch:normal;line-height:0.80000001;font-family:'Acherus Grotesque';-inkscape-font-specification:'Acherus Grotesque';text-align:center;text-anchor:middle;fill:#1a1a1a;stroke:none;stroke-width:0.52916664"
           d="m 22.314849,115.72872 c 0.263924,0 0.512766,0.0867 0.754068,0.24885 0.0377,0.0302 0.06033,0.0151 0.08295,-0.0264 l 0.07164,-0.11688 c 0.01508,-0.0377 0.02262,-0.0603 -0.01885,-0.0829 -0.286546,-0.17344 -0.539158,-0.28655 -0.927503,-0.28655 -0.731446,0 -0.950126,0.49768 -0.950126,0.788 0,0.50146 0.478833,0.62588 0.8898,0.68243 0.493915,0.0679 0.77669,0.16967 0.77669,0.48261 0,0.39211 -0.361952,0.50522 -0.708824,0.50522 -0.282775,0 -0.595713,-0.0867 -0.837015,-0.25261 -0.04524,-0.0264 -0.06033,-0.0189 -0.08672,0.0226 l -0.07164,0.12065 c -0.02262,0.0415 -0.02262,0.0603 0.01508,0.0829 0.286546,0.19983 0.618336,0.29032 1.017992,0.29032 0.648498,0 0.961436,-0.37704 0.961436,-0.78046 0,-0.50523 -0.414737,-0.65604 -0.901111,-0.72014 -0.414737,-0.0528 -0.765379,-0.13196 -0.765379,-0.44113 0,-0.19606 0.124421,-0.51654 0.697513,-0.51654 z" />
        <path
           id="path4607"
           style="font-style:normal;font-variant:normal;font-weight:normal;font-stretch:normal;line-height:0.80000001;font-family:'Acherus Grotesque';-inkscape-font-specification:'Acherus Grotesque';text-align:center;text-anchor:middle;fill:#1a1a1a;stroke:none;stroke-width:0.52916664"
           d="m 23.584217,115.50627 c -0.04524,0 -0.06033,0.0151 -0.06033,0.0603 v 0.15081 c 0,0.0452 0.01131,0.0603 0.06033,0.0603 h 0.901111 v 2.30745 c 0,0.0452 0.01131,0.0603 0.06033,0.0603 h 0.180977 c 0.04524,0 0.05655,-0.0151 0.05655,-0.0603 v -2.30745 h 0.904881 c 0.04524,0 0.05655,-0.0151 0.05655,-0.0603 v -0.15081 c 0,-0.0452 -0.0075,-0.0603 -0.05655,-0.0603 z" />
        <path
           id="path4609"
           style="font-style:normal;font-variant:normal;font-weight:normal;font-stretch:normal;line-height:0.80000001;font-family:'Acherus Grotesque';-inkscape-font-specification:'Acherus Grotesque';text-align:center;text-anchor:middle;fill:#1a1a1a;stroke:none;stroke-width:0.52916664"
           d="m 26.875783,115.95871 0.55424,1.22914 h -1.112251 l 0.55424,-1.22914 z m 0.04901,-0.46375 c -0.01508,-0.0302 -0.02639,-0.0528 -0.04524,-0.0528 h -0.01131 c -0.02262,0 -0.03016,0.0226 -0.04901,0.0528 l -1.229131,2.59023 c -0.01508,0.0339 0,0.0603 0.03393,0.0603 h 0.21868 c 0.04147,0 0.05655,-0.0151 0.07918,-0.0603 l 0.294086,-0.64096 h 1.315849 l 0.294086,0.64096 c 0.02262,0.0452 0.0377,0.0603 0.07541,0.0603 h 0.21868 c 0.0377,0 0.05279,-0.0264 0.0377,-0.0603 z" />
        <path
           id="path4611"
           style="font-style:normal;font-variant:normal;font-weight:normal;font-stretch:normal;line-height:0.80000001;font-family:'Acherus Grotesque';-inkscape-font-specification:'Acherus Grotesque';text-align:center;text-anchor:middle;fill:#1a1a1a;stroke:none;stroke-width:0.52916664"
           d="m 28.06886,115.50627 c -0.04524,0 -0.06033,0.0151 -0.06033,0.0603 v 0.15081 c 0,0.0452 0.01131,0.0603 0.06033,0.0603 h 0.901111 v 2.30745 c 0,0.0452 0.01131,0.0603 0.06032,0.0603 h 0.180977 c 0.04524,0 0.05656,-0.0151 0.05656,-0.0603 v -2.30745 h 0.904882 c 0.04524,0 0.05656,-0.0151 0.05656,-0.0603 v -0.15081 c 0,-0.0452 -0.0075,-0.0603 -0.05656,-0.0603 z" />
        <path
           id="path4613"
           style="font-style:normal;font-variant:normal;font-weight:normal;font-stretch:normal;line-height:0.80000001;font-family:'Acherus Grotesque';-inkscape-font-specification:'Acherus Grotesque';text-align:center;text-anchor:middle;fill:#1a1a1a;stroke:none;stroke-width:0.52916664"
           d="m 32.368462,118.14551 c 0.04524,0 0.05655,-0.0151 0.05655,-0.0603 v -0.13951 c 0,-0.0452 -0.01131,-0.0603 -0.05655,-0.0603 h -1.44027 v -0.94259 h 1.372403 c 0.04525,0 0.06033,-0.0151 0.06033,-0.0603 v -0.1395 c 0,-0.0452 -0.01508,-0.0603 -0.06033,-0.0603 h -1.372403 v -0.91619 h 1.44027 c 0.04147,0 0.05655,-0.0151 0.05655,-0.0603 v -0.1395 c 0,-0.0452 -0.01508,-0.0603 -0.05655,-0.0603 H 30.69066 c -0.04524,0 -0.06033,0.0151 -0.06033,0.0603 v 2.51859 c 0,0.0452 0.01508,0.0603 0.06033,0.0603 z" />
      </g>
    </g>
    <path
       id="path4581"
       d="m 23.536747,77.591057 c 3.32354,-0.88591 7.590539,-2.0717 9.853249,-4.1124 2.104741,1.21878 2.107064,2.49879 2.107064,2.49879 l -0.893939,-7.97636 -8.146729,0.25479 c 0,0 2.015304,0.62656 2.786443,1.7216 -0.857018,2.29456 -2.723234,5.44931 -5.706048,7.61351 z"
       style="opacity:1;fill:#d40000;fill-opacity:1;stroke:none;stroke-width:0.26458332;stroke-miterlimit:4;stroke-dasharray:none;stroke-dashoffset:0;stroke-opacity:1" />
    <g
       id="g5558"
       transform="translate(-4.8466851,94.752694)">
      <path
         style="opacity:1;fill:url(#radialGradient4648);fill-opacity:1;stroke:none;stroke-width:0.26458332;stroke-miterlimit:4;stroke-dasharray:none;stroke-dashoffset:0;stroke-opacity:1"
         d="m 26.101639,-74.707591 c -3.527348,-11.159654 -11.77942,-10.569734 -17.306863,-8.489334 -6.16395,2.319947 -11.491611,2.708437 -7.300458,11.677824 1.062548,2.957807 7.491961,14.776811 16.635345,9.212254 9.143405,-5.564557 8.622588,-9.070184 7.971976,-12.400744 z"
         id="path4616" />
      <g
         aria-label="EXTERNAL STATE"
         transform="matrix(1.0070441,0,0,0.99300518,-13.824012,-186.26193)"
         style="font-style:normal;font-variant:normal;font-weight:normal;font-stretch:normal;font-size:3.7703402px;line-height:1.25;font-family:Consolas;-inkscape-font-specification:Consolas;font-variant-ligatures:normal;font-variant-caps:normal;font-variant-numeric:normal;font-feature-settings:normal;text-align:start;writing-mode:lr-tb;text-anchor:start;opacity:1;fill:#1a1a1a;fill-opacity:1;stroke:#ff0000;stroke-width:0.52916664;stroke-linecap:round;stroke-miterlimit:4;stroke-dasharray:none;stroke-dashoffset:0;stroke-opacity:1"
         id="g4644">
        <path
           d="m 19.028674,113.43259 c 0.04524,0 0.05656,-0.0151 0.05656,-0.0603 v -0.1395 c 0,-0.0452 -0.01131,-0.0603 -0.05656,-0.0603 h -1.44027 v -0.94258 h 1.372403 c 0.04524,0 0.06033,-0.0151 0.06033,-0.0603 v -0.1395 c 0,-0.0452 -0.01508,-0.0603 -0.06033,-0.0603 h -1.372403 v -0.91619 h 1.44027 c 0.04147,0 0.05656,-0.0151 0.05656,-0.0603 v -0.13951 c 0,-0.0452 -0.01508,-0.0603 -0.05656,-0.0603 h -1.677802 c -0.04524,0 -0.06032,0.0151 -0.06032,0.0603 v 2.51859 c 0,0.0452 0.01508,0.0603 0.06032,0.0603 z"
           style="font-style:normal;font-variant:normal;font-weight:normal;font-stretch:normal;line-height:0.80000001;font-family:'Acherus Grotesque';-inkscape-font-specification:'Acherus Grotesque';text-align:center;text-anchor:middle;fill:#1a1a1a;stroke:none;stroke-width:0.52916664"
           id="path4618" />
        <path
           d="m 20.58494,112.35804 0.825705,1.01422 c 0.0377,0.0452 0.04901,0.0603 0.09049,0.0603 h 0.22245 c 0.0377,0 0.05655,-0.0151 0.02639,-0.0603 l -0.99537,-1.25175 0.99537,-1.26684 c 0.03393,-0.0452 0.01131,-0.0603 -0.02639,-0.0603 h -0.21868 c -0.0377,0 -0.05278,0.0113 -0.09049,0.0603 l -0.829475,1.02554 -0.829474,-1.02554 c -0.03016,-0.0452 -0.04901,-0.0603 -0.09049,-0.0603 h -0.218679 c -0.04147,0 -0.05655,0.0151 -0.02639,0.0603 l 0.99914,1.26684 -0.995369,1.25175 c -0.03016,0.0452 -0.0075,0.0603 0.03016,0.0603 h 0.21868 c 0.04147,0 0.05655,-0.0151 0.09049,-0.0603 z"
           style="font-style:normal;font-variant:normal;font-weight:normal;font-stretch:normal;line-height:0.80000001;font-family:'Acherus Grotesque';-inkscape-font-specification:'Acherus Grotesque';text-align:center;text-anchor:middle;fill:#1a1a1a;stroke:none;stroke-width:0.52916664"
           id="path4620" />
        <path
           d="m 21.938375,110.79335 c -0.04524,0 -0.06033,0.0151 -0.06033,0.0603 v 0.15082 c 0,0.0452 0.01131,0.0603 0.06033,0.0603 h 0.901111 v 2.30745 c 0,0.0452 0.01131,0.0603 0.06032,0.0603 h 0.180977 c 0.04524,0 0.05656,-0.0151 0.05656,-0.0603 v -2.30745 h 0.904881 c 0.04524,0 0.05656,-0.0151 0.05656,-0.0603 v -0.15082 c 0,-0.0452 -0.0075,-0.0603 -0.05656,-0.0603 z"
           style="font-style:normal;font-variant:normal;font-weight:normal;font-stretch:normal;line-height:0.80000001;font-family:'Acherus Grotesque';-inkscape-font-specification:'Acherus Grotesque';text-align:center;text-anchor:middle;fill:#1a1a1a;stroke:none;stroke-width:0.52916664"
           id="path4622" />
        <path
           d="m 26.237976,113.43259 c 0.04524,0 0.05656,-0.0151 0.05656,-0.0603 v -0.1395 c 0,-0.0452 -0.01131,-0.0603 -0.05656,-0.0603 h -1.44027 v -0.94258 h 1.372404 c 0.04524,0 0.06033,-0.0151 0.06033,-0.0603 v -0.1395 c 0,-0.0452 -0.01508,-0.0603 -0.06033,-0.0603 h -1.372404 v -0.91619 h 1.44027 c 0.04147,0 0.05656,-0.0151 0.05656,-0.0603 v -0.13951 c 0,-0.0452 -0.01508,-0.0603 -0.05656,-0.0603 h -1.677801 c -0.04524,0 -0.06033,0.0151 -0.06033,0.0603 v 2.51859 c 0,0.0452 0.01508,0.0603 0.06033,0.0603 z"
           style="font-style:normal;font-variant:normal;font-weight:normal;font-stretch:normal;line-height:0.80000001;font-family:'Acherus Grotesque';-inkscape-font-specification:'Acherus Grotesque';text-align:center;text-anchor:middle;fill:#1a1a1a;stroke:none;stroke-width:0.52916664"
           id="path4624" />
        <path
           d="m 28.778302,111.58512 c 0,-0.6108 -0.486374,-0.79177 -0.916193,-0.79177 h -0.897341 c -0.04524,0 -0.06032,0.0151 -0.06032,0.0603 v 2.51859 c 0,0.0528 0.01508,0.0603 0.06032,0.0603 h 0.177206 c 0.04524,0 0.06032,-0.0113 0.06032,-0.0603 v -0.97275 h 0.674891 l 0.693743,0.97275 c 0.02639,0.0377 0.05655,0.0603 0.101799,0.0603 h 0.177206 c 0.04524,0 0.07541,-0.0226 0.04524,-0.0716 l -0.708824,-0.99537 c 0.350642,-0.0943 0.591944,-0.33179 0.591944,-0.78046 z m -1.576003,0.55801 v -1.0934 h 0.640958 c 0.388345,0 0.644728,0.15836 0.644728,0.53539 0,0.3431 -0.196057,0.55801 -0.644728,0.55801 z"
           style="font-style:normal;font-variant:normal;font-weight:normal;font-stretch:normal;line-height:0.80000001;font-family:'Acherus Grotesque';-inkscape-font-specification:'Acherus Grotesque';text-align:center;text-anchor:middle;fill:#1a1a1a;stroke:none;stroke-width:0.52916664"
           id="path4626" />
        <path
           d="m 29.73208,111.34382 1.753208,2.10762 c 0.02262,0.0226 0.0377,0.0302 0.05656,0.0302 h 0.01885 c 0.02262,0 0.03016,-0.004 0.03016,-0.0302 v -2.59777 c 0,-0.049 -0.01131,-0.0603 -0.05655,-0.0603 h -0.180976 c -0.04525,0 -0.06033,0.0113 -0.06033,0.0603 v 2.01337 l -1.756978,-2.09631 c -0.01508,-0.0189 -0.02639,-0.0264 -0.04902,-0.0264 h -0.01885 c -0.02639,0 -0.03393,0.004 -0.03393,0.0302 v 2.59776 c 0,0.0452 0.01508,0.0603 0.06033,0.0603 h 0.177206 c 0.04524,0 0.06032,-0.0151 0.06032,-0.0603 z"
           style="font-style:normal;font-variant:normal;font-weight:normal;font-stretch:normal;line-height:0.80000001;font-family:'Acherus Grotesque';-inkscape-font-specification:'Acherus Grotesque';text-align:center;text-anchor:middle;fill:#1a1a1a;stroke:none;stroke-width:0.52916664"
           id="path4628" />
        <path
           d="m 33.322917,111.24579 0.55424,1.22913 h -1.11225 l 0.55424,-1.22913 z m 0.04902,-0.46375 c -0.01508,-0.0302 -0.02639,-0.0528 -0.04524,-0.0528 h -0.01131 c -0.02262,0 -0.03016,0.0226 -0.04901,0.0528 l -1.229131,2.59022 c -0.01508,0.0339 0,0.0603 0.03393,0.0603 h 0.21868 c 0.04147,0 0.05655,-0.0151 0.07918,-0.0603 l 0.294087,-0.64096 h 1.315848 l 0.294087,0.64096 c 0.02262,0.0452 0.0377,0.0603 0.07541,0.0603 h 0.218679 c 0.0377,0 0.05279,-0.0264 0.0377,-0.0603 z"
           style="font-style:normal;font-variant:normal;font-weight:normal;font-stretch:normal;line-height:0.80000001;font-family:'Acherus Grotesque';-inkscape-font-specification:'Acherus Grotesque';text-align:center;text-anchor:middle;fill:#1a1a1a;stroke:none;stroke-width:0.52916664"
           id="path4630" />
        <path
           d="m 35.332096,113.17243 v -2.31876 c 0,-0.0452 -0.01508,-0.0603 -0.06032,-0.0603 H 35.09457 c -0.04524,0 -0.06033,0.0151 -0.06033,0.0603 v 2.51859 c 0,0.0452 0.01508,0.0603 0.06033,0.0603 h 1.534528 c 0.04525,0 0.05656,-0.0151 0.05656,-0.0603 v -0.1395 c 0,-0.0452 -0.01131,-0.0603 -0.05656,-0.0603 z"
           style="font-style:normal;font-variant:normal;font-weight:normal;font-stretch:normal;line-height:0.80000001;font-family:'Acherus Grotesque';-inkscape-font-specification:'Acherus Grotesque';text-align:center;text-anchor:middle;fill:#1a1a1a;stroke:none;stroke-width:0.52916664"
           id="path4632" />
        <path
           d="m 22.314849,115.72872 c 0.263924,0 0.512766,0.0867 0.754068,0.24885 0.0377,0.0302 0.06033,0.0151 0.08295,-0.0264 l 0.07164,-0.11688 c 0.01508,-0.0377 0.02262,-0.0603 -0.01885,-0.0829 -0.286546,-0.17344 -0.539158,-0.28655 -0.927503,-0.28655 -0.731446,0 -0.950126,0.49768 -0.950126,0.788 0,0.50146 0.478833,0.62588 0.8898,0.68243 0.493915,0.0679 0.77669,0.16967 0.77669,0.48261 0,0.39211 -0.361952,0.50522 -0.708824,0.50522 -0.282775,0 -0.595713,-0.0867 -0.837015,-0.25261 -0.04524,-0.0264 -0.06033,-0.0189 -0.08672,0.0226 l -0.07164,0.12065 c -0.02262,0.0415 -0.02262,0.0603 0.01508,0.0829 0.286546,0.19983 0.618336,0.29032 1.017992,0.29032 0.648498,0 0.961436,-0.37704 0.961436,-0.78046 0,-0.50523 -0.414737,-0.65604 -0.901111,-0.72014 -0.414737,-0.0528 -0.765379,-0.13196 -0.765379,-0.44113 0,-0.19606 0.124421,-0.51654 0.697513,-0.51654 z"
           style="font-style:normal;font-variant:normal;font-weight:normal;font-stretch:normal;line-height:0.80000001;font-family:'Acherus Grotesque';-inkscape-font-specification:'Acherus Grotesque';text-align:center;text-anchor:middle;fill:#1a1a1a;stroke:none;stroke-width:0.52916664"
           id="path4634" />
        <path
           d="m 23.584217,115.50627 c -0.04524,0 -0.06033,0.0151 -0.06033,0.0603 v 0.15081 c 0,0.0452 0.01131,0.0603 0.06033,0.0603 h 0.901111 v 2.30745 c 0,0.0452 0.01131,0.0603 0.06033,0.0603 h 0.180977 c 0.04524,0 0.05655,-0.0151 0.05655,-0.0603 v -2.30745 h 0.904881 c 0.04524,0 0.05655,-0.0151 0.05655,-0.0603 v -0.15081 c 0,-0.0452 -0.0075,-0.0603 -0.05655,-0.0603 z"
           style="font-style:normal;font-variant:normal;font-weight:normal;font-stretch:normal;line-height:0.80000001;font-family:'Acherus Grotesque';-inkscape-font-specification:'Acherus Grotesque';text-align:center;text-anchor:middle;fill:#1a1a1a;stroke:none;stroke-width:0.52916664"
           id="path4636" />
        <path
           d="m 26.875783,115.95871 0.55424,1.22914 h -1.112251 l 0.55424,-1.22914 z m 0.04901,-0.46375 c -0.01508,-0.0302 -0.02639,-0.0528 -0.04524,-0.0528 h -0.01131 c -0.02262,0 -0.03016,0.0226 -0.04901,0.0528 l -1.229131,2.59023 c -0.01508,0.0339 0,0.0603 0.03393,0.0603 h 0.21868 c 0.04147,0 0.05655,-0.0151 0.07918,-0.0603 l 0.294086,-0.64096 h 1.315849 l 0.294086,0.64096 c 0.02262,0.0452 0.0377,0.0603 0.07541,0.0603 h 0.21868 c 0.0377,0 0.05279,-0.0264 0.0377,-0.0603 z"
           style="font-style:normal;font-variant:normal;font-weight:normal;font-stretch:normal;line-height:0.80000001;font-family:'Acherus Grotesque';-inkscape-font-specification:'Acherus Grotesque';text-align:center;text-anchor:middle;fill:#1a1a1a;stroke:none;stroke-width:0.52916664"
           id="path4638" />
        <path
           d="m 28.06886,115.50627 c -0.04524,0 -0.06033,0.0151 -0.06033,0.0603 v 0.15081 c 0,0.0452 0.01131,0.0603 0.06033,0.0603 h 0.901111 v 2.30745 c 0,0.0452 0.01131,0.0603 0.06032,0.0603 h 0.180977 c 0.04524,0 0.05656,-0.0151 0.05656,-0.0603 v -2.30745 h 0.904882 c 0.04524,0 0.05656,-0.0151 0.05656,-0.0603 v -0.15081 c 0,-0.0452 -0.0075,-0.0603 -0.05656,-0.0603 z"
           style="font-style:normal;font-variant:normal;font-weight:normal;font-stretch:normal;line-height:0.80000001;font-family:'Acherus Grotesque';-inkscape-font-specification:'Acherus Grotesque';text-align:center;text-anchor:middle;fill:#1a1a1a;stroke:none;stroke-width:0.52916664"
           id="path4640" />
        <path
           d="m 32.368462,118.14551 c 0.04524,0 0.05655,-0.0151 0.05655,-0.0603 v -0.13951 c 0,-0.0452 -0.01131,-0.0603 -0.05655,-0.0603 h -1.44027 v -0.94259 h 1.372403 c 0.04525,0 0.06033,-0.0151 0.06033,-0.0603 v -0.1395 c 0,-0.0452 -0.01508,-0.0603 -0.06033,-0.0603 h -1.372403 v -0.91619 h 1.44027 c 0.04147,0 0.05655,-0.0151 0.05655,-0.0603 v -0.1395 c 0,-0.0452 -0.01508,-0.0603 -0.05655,-0.0603 H 30.69066 c -0.04524,0 -0.06033,0.0151 -0.06033,0.0603 v 2.51859 c 0,0.0452 0.01508,0.0603 0.06033,0.0603 z"
           style="font-style:normal;font-variant:normal;font-weight:normal;font-stretch:normal;line-height:0.80000001;font-family:'Acherus Grotesque';-inkscape-font-specification:'Acherus Grotesque';text-align:center;text-anchor:middle;fill:#1a1a1a;stroke:none;stroke-width:0.52916664"
           id="path4642" />
      </g>
    </g>
    <path
       style="opacity:1;fill:#d40000;fill-opacity:1;stroke:none;stroke-width:0.26458332;stroke-miterlimit:4;stroke-dasharray:none;stroke-dashoffset:0;stroke-opacity:1"
       d="m 35.119802,31.181043 c -1.543432,-3.073853 -3.572385,-7.010441 -6.030681,-8.810746 0.765173,-2.308651 2.01795,-2.571293 2.01795,-2.571293 l -7.627765,2.497727 1.906595,7.924582 c 0,0 0.203526,-2.10062 1.118815,-3.07838 2.420915,0.372363 5.889319,1.557853 8.615009,4.038085 z"
       id="path4650" />
    <g
       style="stroke-width:0.95376402"
       id="g4610"
       transform="matrix(1.0484774,0,0,1.0484774,27.521635,0.37438609)">
      <path
         id="path4485-3"
         d="M 38.152932,22.623452 C 42.484999,40.080015 67.086519,43.232583 76.995361,28.438006 88.902562,10.659778 80.955016,4.1374314 66.468882,1.0544072 55.127146,-1.3594112 31.693292,-1.5955728 38.152932,22.623452 Z"
         style="opacity:1;fill:url(#radialGradient4493-1);fill-opacity:1;stroke:none;stroke-width:0.25235003;stroke-miterlimit:4;stroke-dasharray:none;stroke-dashoffset:0;stroke-opacity:1" />
      <g
         transform="matrix(0.94593259,0,0,0.94593259,-38.854469,-34.53383)"
         id="text5113-9"
         style="font-style:normal;font-variant:normal;font-weight:normal;font-stretch:normal;font-size:7.20233107px;line-height:1.25;font-family:'Acherus Grotesque';-inkscape-font-specification:'Acherus Grotesque';font-variant-ligatures:normal;font-variant-caps:normal;font-variant-numeric:normal;font-feature-settings:normal;text-align:start;writing-mode:lr-tb;text-anchor:start;opacity:1;fill:#ffffff;fill-opacity:1;stroke:none;stroke-width:0.26677385;stroke-miterlimit:4;stroke-dasharray:none;stroke-dashoffset:0;stroke-opacity:1"
         aria-label="MODEL">
        <path
           id="path4538-5"
           style="fill:#ffffff;stroke-width:0.26677385"
           d="m 94.626968,53.174642 0.417735,3.752414 c 0.0072,0.08643 0.02881,0.115238 0.108035,0.115238 h 0.352914 c 0.08643,0 0.115238,-0.03601 0.108035,-0.115238 l -0.604995,-4.955204 c -0.0072,-0.05042 -0.0144,-0.06482 -0.06482,-0.06482 h -0.04321 c -0.02881,0 -0.05042,0.0072 -0.08643,0.06482 l -2.304746,4.357411 -2.304746,-4.357411 c -0.03601,-0.05762 -0.05762,-0.06482 -0.08643,-0.06482 H 90.0751 c -0.05042,0 -0.05762,0.0144 -0.06482,0.06482 l -0.604996,4.955204 c -0.0144,0.07923 0.02161,0.115238 0.100833,0.115238 h 0.352914 c 0.08643,0 0.100833,-0.02881 0.115237,-0.115238 l 0.424938,-3.745212 1.944629,3.838843 c 0.05042,0.07202 0.07923,0.115237 0.136844,0.115237 h 0.05762 c 0.05762,0 0.09363,-0.04321 0.129642,-0.115237 z" />
        <path
           id="path4540-2"
           style="fill:#ffffff;stroke-width:0.26677385"
           d="m 96.457036,54.521478 c 0,1.433264 1.159575,2.614446 2.578434,2.614446 1.41886,0 2.57843,-1.181182 2.57843,-2.614446 0,-1.433264 -1.15957,-2.614447 -2.57843,-2.614447 -1.418859,0 -2.578434,1.181183 -2.578434,2.614447 z m 0.576186,0 c 0,-1.087552 0.878684,-2.110283 2.002248,-2.110283 1.13797,0 2.00225,1.022731 2.00225,2.110283 0,1.080349 -0.86428,2.110283 -2.00225,2.110283 -1.123564,0 -2.002248,-1.029934 -2.002248,-2.110283 z" />
        <path
           id="path4542-2"
           style="fill:#ffffff;stroke-width:0.26677385"
           d="m 102.76301,52.000662 c -0.0864,0 -0.11523,0.02881 -0.11523,0.115237 v 4.811157 c 0,0.08643 0.036,0.115238 0.11523,0.115238 h 1.76457 c 1.41886,0 2.50642,-1.087552 2.50642,-2.520816 0,-1.433264 -1.08756,-2.520816 -2.50642,-2.520816 z m 1.75737,0.489758 c 1.17398,0 1.93743,0.943506 1.93743,2.031058 0,1.080349 -0.76345,2.031057 -1.93743,2.031057 h -1.30362 V 52.49042 Z" />
        <path
           id="path4544-9"
           style="fill:#ffffff;stroke-width:0.26677385"
           d="m 111.36226,57.042294 c 0.0864,0 0.10803,-0.02881 0.10803,-0.115238 V 56.66057 c 0,-0.08643 -0.0216,-0.115237 -0.10803,-0.115237 h -2.75129 V 54.74475 h 2.62165 c 0.0864,0 0.11523,-0.02881 0.11523,-0.115237 v -0.266487 c 0,-0.08643 -0.0288,-0.115237 -0.11523,-0.115237 h -2.62165 v -1.750166 h 2.75129 c 0.0792,0 0.10803,-0.02881 0.10803,-0.115238 v -0.266486 c 0,-0.08643 -0.0288,-0.115237 -0.10803,-0.115237 h -3.20504 c -0.0864,0 -0.11524,0.02881 -0.11524,0.115237 v 4.811157 c 0,0.08643 0.0288,0.115238 0.11524,0.115238 z" />
        <path
           id="path4546-1"
           style="fill:#ffffff;stroke-width:0.26677385"
           d="m 113.20437,56.545333 v -4.429434 c 0,-0.08643 -0.0288,-0.115237 -0.11524,-0.115237 h -0.33851 c -0.0864,0 -0.11524,0.02881 -0.11524,0.115237 v 4.811157 c 0,0.08643 0.0288,0.115238 0.11524,0.115238 h 2.93135 c 0.0864,0 0.10804,-0.02881 0.10804,-0.115238 V 56.66057 c 0,-0.08643 -0.0216,-0.115237 -0.10804,-0.115237 z" />
      </g>
    </g>
    <g
       style="stroke-width:0.95376402"
       id="g4601"
       transform="matrix(1.0484774,0,0,1.0484774,27.521635,0.37438609)">
      <path
         id="path4505-2"
         d="m 69.72026,49.927741 c 7.368162,-5.465199 11.084429,-7.966037 20.278723,-6.408154 9.194295,1.55794 22.975737,15.047646 11.353087,25.262069 C 89.729449,78.996072 79.078069,71.489672 75.23272,65.601175 71.818518,60.372864 65.864932,54.148977 69.72026,49.927741 Z"
         style="opacity:1;fill:url(#radialGradient4515-8);fill-opacity:1;stroke:none;stroke-width:0.25235003;stroke-miterlimit:4;stroke-dasharray:none;stroke-dashoffset:0;stroke-opacity:1" />
      <g
         transform="matrix(0.94593259,0,0,0.94593259,-38.854469,-34.53383)"
         aria-label="VIEW"
         style="font-style:normal;font-variant:normal;font-weight:normal;font-stretch:normal;font-size:7.20233107px;line-height:1.25;font-family:'Acherus Grotesque';-inkscape-font-specification:'Acherus Grotesque';font-variant-ligatures:normal;font-variant-caps:normal;font-variant-numeric:normal;font-feature-settings:normal;text-align:start;writing-mode:lr-tb;text-anchor:start;opacity:1;fill:#ffffff;fill-opacity:1;stroke:none;stroke-width:0.26677385;stroke-miterlimit:4;stroke-dasharray:none;stroke-dashoffset:0;stroke-opacity:1"
         id="text5117-1">
        <path
           d="m 125.51236,100.17296 c 0.0432,0.072 0.0504,0.10083 0.0936,0.10083 h 0.0216 c 0.036,0 0.0504,-0.036 0.0864,-0.10083 l 2.35516,-4.948003 c 0.0216,-0.05762 0.007,-0.115237 -0.072,-0.115237 h -0.41774 c -0.0648,0 -0.10083,0.02161 -0.14405,0.115237 l -1.81498,3.95408 h -0.007 l -1.81498,-3.95408 c -0.0432,-0.09363 -0.072,-0.115237 -0.15125,-0.115237 h -0.41774 c -0.0648,0 -0.0936,0.05042 -0.0648,0.115237 z"
           style="fill:#ffffff;stroke-width:0.26677385"
           id="path5723-5" />
        <path
           d="m 128.91828,100.03611 c 0,0.0864 0.0288,0.11524 0.11523,0.11524 h 0.34572 c 0.0864,0 0.10803,-0.0288 0.10803,-0.11524 v -4.811153 c 0,-0.08643 -0.0216,-0.115237 -0.10803,-0.115237 h -0.34572 c -0.0864,0 -0.11523,0.02881 -0.11523,0.115237 z"
           style="fill:#ffffff;stroke-width:0.26677385"
           id="path5725-9" />
        <path
           d="m 134.24192,100.15135 c 0.0864,0 0.10804,-0.0288 0.10804,-0.11524 v -0.266482 c 0,-0.08643 -0.0216,-0.115237 -0.10804,-0.115237 h -2.75129 v -1.800583 h 2.62165 c 0.0864,0 0.11524,-0.02881 0.11524,-0.115237 v -0.266486 c 0,-0.08643 -0.0288,-0.115238 -0.11524,-0.115238 h -2.62165 v -1.750166 h 2.75129 c 0.0792,0 0.10804,-0.02881 0.10804,-0.115237 v -0.266487 c 0,-0.08643 -0.0288,-0.115237 -0.10804,-0.115237 h -3.20503 c -0.0864,0 -0.11524,0.02881 -0.11524,0.115237 v 4.811153 c 0,0.0864 0.0288,0.11524 0.11524,0.11524 z"
           style="fill:#ffffff;stroke-width:0.26677385"
           id="path5727-5" />
        <path
           d="m 135.56546,95.224957 c -0.0288,-0.08643 -0.0648,-0.115237 -0.14404,-0.115237 h -0.43934 c -0.072,0 -0.0864,0.02881 -0.0504,0.115237 l 1.8654,4.948003 c 0.0288,0.072 0.0504,0.10083 0.0792,0.10083 h 0.0504 c 0.0288,0 0.0504,-0.036 0.0792,-0.10083 l 1.26761,-4.083723 1.26761,4.083723 c 0.0288,0.0648 0.0504,0.10083 0.0792,0.10083 h 0.0504 c 0.036,0 0.0504,-0.036 0.0792,-0.10083 l 1.8654,-4.948003 c 0.036,-0.08643 0.0216,-0.115237 -0.0504,-0.115237 h -0.43935 c -0.0792,0 -0.11523,0.02881 -0.14404,0.115237 l -1.36124,3.838843 -1.20999,-3.932473 c -0.0288,-0.07922 -0.0504,-0.115237 -0.10084,-0.115237 h -0.072 c -0.0504,0 -0.072,0.03601 -0.10083,0.115237 l -1.21,3.932473 z"
           style="fill:#ffffff;stroke-width:0.26677385"
           id="path5729-6" />
      </g>
    </g>
    <g
       style="stroke-width:0.95376402"
       id="g4581"
       transform="matrix(1.0484774,0,0,1.0484774,27.521635,0.37438609)">
      <path
         id="path4495-8"
         d="M 36.327371,47.988134 C 33.945748,32.895851 23.178478,32.051422 15.638321,33.661264 7.229894,35.456459 0.27690444,34.921147 3.9416459,47.315245 4.7376529,51.340213 10.737171,67.848408 23.623138,62.444617 36.509133,57.040838 36.519056,52.414117 36.327371,47.988134 Z"
         style="opacity:1;fill:url(#radialGradient4503-1);fill-opacity:1;stroke:none;stroke-width:0.25235006;stroke-miterlimit:4;stroke-dasharray:none;stroke-dashoffset:0;stroke-opacity:1" />
      <g
         transform="matrix(0.94593259,0,0,0.94593259,-38.854469,-34.53383)"
         aria-label="ACTION"
         style="font-style:normal;font-variant:normal;font-weight:normal;font-stretch:normal;font-size:7.20233107px;line-height:1.25;font-family:'Acherus Grotesque';-inkscape-font-specification:'Acherus Grotesque';font-variant-ligatures:normal;font-variant-caps:normal;font-variant-numeric:normal;font-feature-settings:normal;text-align:start;writing-mode:lr-tb;text-anchor:start;opacity:1;fill:#ffffff;fill-opacity:1;stroke:none;stroke-width:0.26677385;stroke-miterlimit:4;stroke-dasharray:none;stroke-dashoffset:0;stroke-opacity:1"
         id="text5125-4">
        <path
           d="m 51.096177,84.68818 1.058742,2.34796 h -2.124687 l 1.058742,-2.34796 z m 0.09363,-0.885887 c -0.02881,-0.05762 -0.05042,-0.100832 -0.08643,-0.100832 h -0.02161 c -0.04321,0 -0.05762,0.04321 -0.09363,0.100832 l -2.34796,4.948002 c -0.02881,0.06482 0,0.115237 0.06482,0.115237 h 0.417735 c 0.07923,0 0.108035,-0.02881 0.151249,-0.115237 l 0.561782,-1.224397 h 2.513613 l 0.561782,1.224397 c 0.04321,0.08643 0.07202,0.115237 0.144047,0.115237 h 0.417735 c 0.07202,0 0.100833,-0.05042 0.07202,-0.115237 z"
           style="fill:#ffffff;stroke-width:0.26677385"
           id="path5710-7" />
        <path
           d="m 56.562634,88.454999 c -1.123564,0 -2.002248,-1.022731 -2.002248,-2.110283 0,-1.087552 0.878684,-2.110283 2.002248,-2.110283 0.669816,0 1.188384,0.295296 1.505287,0.633805 0.05762,0.05762 0.108035,0.05762 0.165653,-0.0072 l 0.208868,-0.230475 c 0.05762,-0.06482 0.06482,-0.100832 0.0072,-0.158451 -0.460949,-0.460949 -1.188384,-0.74184 -1.88701,-0.74184 -1.41886,0 -2.578435,1.181182 -2.578435,2.614446 0,1.433264 1.159575,2.614446 2.578435,2.614446 0.698626,0 1.426061,-0.280891 1.88701,-0.74184 0.06482,-0.06482 0.06482,-0.100833 0.0072,-0.172856 l -0.21607,-0.230474 c -0.05042,-0.05042 -0.09363,-0.06482 -0.158452,-0.0072 -0.338509,0.352914 -0.849875,0.64821 -1.519691,0.64821 z"
           style="fill:#ffffff;stroke-width:0.26677385"
           id="path5712-6" />
        <path
           d="m 58.988019,83.8239 c -0.08643,0 -0.115237,0.02881 -0.115237,0.115237 v 0.288094 c 0,0.08643 0.02161,0.115237 0.115237,0.115237 h 1.721357 v 4.407827 c 0,0.08643 0.02161,0.115237 0.115237,0.115237 h 0.345712 c 0.08643,0 0.108035,-0.02881 0.108035,-0.115237 v -4.407827 h 1.72856 c 0.08643,0 0.108035,-0.02881 0.108035,-0.115237 v -0.288094 c 0,-0.08643 -0.01441,-0.115237 -0.108035,-0.115237 z"
           style="fill:#ffffff;stroke-width:0.26677385"
           id="path5714-5" />
        <path
           d="m 63.931518,88.750295 c 0,0.08643 0.02881,0.115237 0.115238,0.115237 h 0.345711 c 0.08643,0 0.108035,-0.02881 0.108035,-0.115237 v -4.811158 c 0,-0.08643 -0.02161,-0.115237 -0.108035,-0.115237 h -0.345711 c -0.08643,0 -0.115238,0.02881 -0.115238,0.115237 z"
           style="fill:#ffffff;stroke-width:0.26677385"
           id="path5716-9" />
        <path
           d="m 65.603584,86.344716 c 0,1.433264 1.159575,2.614446 2.578434,2.614446 1.41886,0 2.578435,-1.181182 2.578435,-2.614446 0,-1.433264 -1.159575,-2.614446 -2.578435,-2.614446 -1.418859,0 -2.578434,1.181182 -2.578434,2.614446 z m 0.576186,0 c 0,-1.087552 0.878685,-2.110283 2.002248,-2.110283 1.137969,0 2.002248,1.022731 2.002248,2.110283 0,1.08035 -0.864279,2.110283 -2.002248,2.110283 -1.123563,0 -2.002248,-1.029933 -2.002248,-2.110283 z"
           style="fill:#ffffff;stroke-width:0.26677385"
           id="path5718-8" />
        <path
           d="m 72.384917,84.875441 3.349084,4.026103 c 0.04321,0.04321 0.07202,0.05762 0.108035,0.05762 h 0.03601 c 0.04321,0 0.05762,-0.0072 0.05762,-0.05762 v -4.962407 c 0,-0.09363 -0.02161,-0.115237 -0.108035,-0.115237 h -0.345712 c -0.08643,0 -0.115237,0.02161 -0.115237,0.115237 v 3.846045 l -3.356286,-4.004496 c -0.02881,-0.03601 -0.05042,-0.05042 -0.09363,-0.05042 h -0.03601 c -0.05042,0 -0.06482,0.0072 -0.06482,0.05762 v 4.962406 c 0,0.08643 0.02881,0.115237 0.115237,0.115237 h 0.33851 c 0.08643,0 0.115237,-0.02881 0.115237,-0.115237 z"
           style="fill:#ffffff;stroke-width:0.26677385"
           id="path5720-4" />
      </g>
    </g>
    <g
       style="stroke-width:0.95376402"
       id="g4593"
       transform="matrix(1.0484774,0,0,1.0484774,27.521635,0.37438609)">
      <path
         style="opacity:1;fill:url(#radialGradient5161-5);fill-opacity:1;stroke:none;stroke-width:0.25235006;stroke-miterlimit:4;stroke-dasharray:none;stroke-dashoffset:0;stroke-opacity:1"
         d="m 56.440748,67.031945 c -6.962357,-8.607777 -14.024909,-5.236739 -18.173226,-1.494772 -4.626012,4.172859 -9.183053,6.355986 -2.393051,12.805724 1.957733,2.237338 11.703358,10.422871 17.831719,2.363384 6.128384,-8.059488 4.458368,-10.966414 2.734558,-13.674336 z"
         id="path5127-6" />
      <g
         transform="matrix(0.94593259,0,0,0.94593259,-38.854469,-34.53383)"
         aria-label="MESSGAGE"
         style="font-style:normal;font-variant:normal;font-weight:normal;font-stretch:normal;font-size:3.90353894px;line-height:1.25;font-family:'Acherus Grotesque';-inkscape-font-specification:'Acherus Grotesque';font-variant-ligatures:normal;font-variant-caps:normal;font-variant-numeric:normal;font-feature-settings:normal;text-align:start;writing-mode:lr-tb;text-anchor:start;opacity:1;fill:#333333;fill-opacity:1;stroke:none;stroke-width:0.26677385;stroke-miterlimit:4;stroke-dasharray:none;stroke-dashoffset:0;stroke-opacity:1"
         id="text5133-7">
        <path
           d="m 80.476033,112.37954 0.226405,2.03374 c 0.0039,0.0468 0.01561,0.0625 0.05855,0.0625 h 0.191274 c 0.04684,0 0.06246,-0.0195 0.05855,-0.0625 l -0.327898,-2.68563 c -0.0039,-0.0273 -0.0078,-0.0351 -0.03513,-0.0351 h -0.02342 c -0.01561,0 -0.02733,0.004 -0.04684,0.0351 l -1.249133,2.36164 -1.249132,-2.36164 c -0.01952,-0.0312 -0.03123,-0.0351 -0.04684,-0.0351 h -0.02342 c -0.02732,0 -0.03123,0.008 -0.03513,0.0351 l -0.327897,2.68563 c -0.0078,0.0429 0.01171,0.0625 0.05465,0.0625 h 0.191273 c 0.04684,0 0.05465,-0.0156 0.06246,-0.0625 l 0.230308,-2.02984 1.053956,2.08059 c 0.02732,0.039 0.04294,0.0625 0.07417,0.0625 h 0.03123 c 0.03123,0 0.05075,-0.0234 0.07026,-0.0625 z"
           style="fill:#333333;stroke-width:0.26677385"
           id="path5732-0" />
        <path
           d="m 83.446992,114.47574 c 0.04684,0 0.05855,-0.0156 0.05855,-0.0625 v -0.14443 c 0,-0.0468 -0.01171,-0.0625 -0.05855,-0.0625 H 81.95584 v -0.97588 h 1.420888 c 0.04684,0 0.06246,-0.0156 0.06246,-0.0625 v -0.14443 c 0,-0.0468 -0.01561,-0.0624 -0.06246,-0.0624 H 81.95584 v -0.94856 h 1.491152 c 0.04294,0 0.05855,-0.0156 0.05855,-0.0625 v -0.14443 c 0,-0.0468 -0.01561,-0.0625 -0.05855,-0.0625 h -1.737075 c -0.04684,0 -0.06246,0.0156 -0.06246,0.0625 v 2.60756 c 0,0.0468 0.01561,0.0625 0.06246,0.0625 z"
           style="fill:#333333;stroke-width:0.26677385"
           id="path5734-6" />
        <path
           d="m 85.030914,111.97357 c 0.273248,0 0.530881,0.0898 0.780708,0.25763 0.03903,0.0312 0.06246,0.0156 0.08588,-0.0273 l 0.07417,-0.12101 c 0.01561,-0.039 0.02342,-0.0625 -0.01952,-0.0859 -0.296669,-0.17956 -0.558206,-0.29667 -0.96027,-0.29667 -0.757287,0 -0.983692,0.51527 -0.983692,0.81584 0,0.51917 0.495749,0.64799 0.921235,0.70654 0.511363,0.0703 0.804129,0.17566 0.804129,0.49966 0,0.40596 -0.37474,0.52307 -0.733865,0.52307 -0.292766,0 -0.61676,-0.0898 -0.866586,-0.26154 -0.04684,-0.0273 -0.06246,-0.0195 -0.08978,0.0234 l -0.07417,0.12492 c -0.02342,0.0429 -0.02342,0.0624 0.01561,0.0859 0.296669,0.20689 0.640181,0.30058 1.053956,0.30058 0.671409,0 0.995402,-0.39036 0.995402,-0.80804 0,-0.52307 -0.429389,-0.67921 -0.932945,-0.74557 -0.42939,-0.0546 -0.792419,-0.13662 -0.792419,-0.45672 0,-0.20298 0.128817,-0.53478 0.722155,-0.53478 z"
           style="fill:#333333;stroke-width:0.26677385"
           id="path5736-3" />
        <path
           d="m 87.523994,111.97357 c 0.273248,0 0.530881,0.0898 0.780708,0.25763 0.03903,0.0312 0.06246,0.0156 0.08588,-0.0273 l 0.07417,-0.12101 c 0.01561,-0.039 0.02342,-0.0625 -0.01952,-0.0859 -0.296669,-0.17956 -0.558206,-0.29667 -0.96027,-0.29667 -0.757287,0 -0.983692,0.51527 -0.983692,0.81584 0,0.51917 0.495749,0.64799 0.921235,0.70654 0.511364,0.0703 0.804129,0.17566 0.804129,0.49966 0,0.40596 -0.37474,0.52307 -0.733865,0.52307 -0.292766,0 -0.616759,-0.0898 -0.866586,-0.26154 -0.04684,-0.0273 -0.06246,-0.0195 -0.08978,0.0234 l -0.07417,0.12492 c -0.02342,0.0429 -0.02342,0.0624 0.01561,0.0859 0.296669,0.20689 0.64018,0.30058 1.053955,0.30058 0.671409,0 0.995403,-0.39036 0.995403,-0.80804 0,-0.52307 -0.42939,-0.67921 -0.932946,-0.74557 -0.42939,-0.0546 -0.792419,-0.13662 -0.792419,-0.45672 0,-0.20298 0.128817,-0.53478 0.722155,-0.53478 z"
           style="fill:#333333;stroke-width:0.26677385"
           id="path5738-0" />
        <path
           d="m 90.321551,111.96576 c 0.316187,0 0.62847,0.16005 0.808033,0.33961 0.03904,0.0351 0.06246,0.0312 0.08978,0 l 0.117106,-0.12882 c 0.03123,-0.0351 0.04294,-0.0507 0.0078,-0.0859 -0.261537,-0.24593 -0.644084,-0.39816 -1.022727,-0.39816 -0.768997,0 -1.38966,0.64018 -1.38966,1.41698 0,0.7768 0.620663,1.41698 1.38966,1.41698 0.382547,0 0.792419,-0.15614 1.050052,-0.40987 0.04294,-0.0429 0.06246,-0.0781 0.06246,-0.14052 v -0.86269 c 0,-0.0429 -0.01171,-0.0624 -0.05855,-0.0624 h -0.995403 c -0.04684,0 -0.06246,0.0156 -0.06246,0.0624 v 0.14834 c 0,0.0468 0.01561,0.0585 0.06246,0.0585 h 0.745576 v 0.63237 c -0.18737,0.16786 -0.460617,0.30058 -0.804129,0.30058 -0.608952,0 -1.077377,-0.55821 -1.077377,-1.14374 0,-0.58943 0.468425,-1.14374 1.077377,-1.14374 z"
           style="fill:#333333;stroke-width:0.26677385"
           id="path5740-7" />
        <path
           d="m 93.084708,112.21169 0.57382,1.27255 h -1.151544 l 0.57382,-1.27255 z m 0.05075,-0.48014 c -0.01561,-0.0312 -0.02732,-0.0546 -0.04684,-0.0546 H 93.0769 c -0.02342,0 -0.03123,0.0234 -0.05075,0.0546 l -1.272553,2.68173 c -0.01561,0.0351 0,0.0625 0.03513,0.0625 h 0.226405 c 0.04294,0 0.05855,-0.0156 0.08197,-0.0625 l 0.304476,-0.6636 h 1.362335 l 0.304476,0.6636 c 0.02342,0.0468 0.03904,0.0625 0.07807,0.0625 h 0.226405 c 0.03904,0 0.05465,-0.0273 0.03904,-0.0625 z"
           style="fill:#333333;stroke-width:0.26677385"
           id="path5742-3" />
        <path
           d="m 96.039625,111.96576 c 0.316187,0 0.62847,0.16005 0.808033,0.33961 0.03903,0.0351 0.06246,0.0312 0.08978,0 l 0.117106,-0.12882 c 0.03123,-0.0351 0.04294,-0.0507 0.0078,-0.0859 -0.261537,-0.24593 -0.644084,-0.39816 -1.022727,-0.39816 -0.768997,0 -1.38966,0.64018 -1.38966,1.41698 0,0.7768 0.620663,1.41698 1.38966,1.41698 0.382547,0 0.792418,-0.15614 1.050052,-0.40987 0.04294,-0.0429 0.06246,-0.0781 0.06246,-0.14052 v -0.86269 c 0,-0.0429 -0.01171,-0.0624 -0.05855,-0.0624 h -0.995403 c -0.04684,0 -0.06246,0.0156 -0.06246,0.0624 v 0.14834 c 0,0.0468 0.01562,0.0585 0.06246,0.0585 h 0.745576 v 0.63237 c -0.18737,0.16786 -0.460618,0.30058 -0.804129,0.30058 -0.608952,0 -1.077377,-0.55821 -1.077377,-1.14374 0,-0.58943 0.468425,-1.14374 1.077377,-1.14374 z"
           style="fill:#333333;stroke-width:0.26677385"
           id="path5744-7" />
        <path
           d="m 99.579587,114.47574 c 0.04684,0 0.05855,-0.0156 0.05855,-0.0625 v -0.14443 c 0,-0.0468 -0.01171,-0.0625 -0.05855,-0.0625 h -1.491152 v -0.97588 h 1.420888 c 0.04684,0 0.06246,-0.0156 0.06246,-0.0625 v -0.14443 c 0,-0.0468 -0.01562,-0.0624 -0.06246,-0.0624 h -1.420888 v -0.94856 h 1.491152 c 0.04294,0 0.05855,-0.0156 0.05855,-0.0625 v -0.14443 c 0,-0.0468 -0.01561,-0.0625 -0.05855,-0.0625 h -1.737075 c -0.04684,0 -0.06246,0.0156 -0.06246,0.0625 v 2.60756 c 0,0.0468 0.01561,0.0625 0.06246,0.0625 z"
           style="fill:#333333;stroke-width:0.26677385"
           id="path5746-3" />
      </g>
    </g>
    <path
       style="opacity:1;fill:#d40000;fill-opacity:1;stroke:none;stroke-width:0.26458335;stroke-miterlimit:4;stroke-dasharray:none;stroke-dashoffset:0;stroke-opacity:1"
       d="m 112.58818,28.828247 c 2.41218,2.412181 5.48506,5.550656 6.41282,8.426719 2.41218,0 3.05036,-1.097397 3.05036,-1.097397 l -4.73159,6.401559 -6.86544,-4.267708 c 0,0 2.04107,0.463882 3.24716,-0.09277 0.40487,-2.395299 0.37111,-6.030455 -1.11331,-9.370399 z"
       id="path5135-3" />
    <path
       id="path5137-1"
       d="m 106.2624,74.205042 c -2.4316,2.392612 -5.59481,5.440022 -8.478265,6.344514 -0.01953,2.4121 1.072709,3.059123 1.072709,3.059123 l -6.36312,-4.78317 4.32305,-6.830728 c 0,0 -0.480354,2.037264 0.06645,3.247811 2.391948,0.424219 6.027266,0.419835 9.379106,-1.03755 z"
       style="opacity:1;fill:#d40000;fill-opacity:1;stroke:none;stroke-width:0.26458335;stroke-miterlimit:4;stroke-dasharray:none;stroke-dashoffset:0;stroke-opacity:1" />
    <path
       style="opacity:1;fill:#d40000;fill-opacity:1;stroke:none;stroke-width:0.26458335;stroke-miterlimit:4;stroke-dasharray:none;stroke-dashoffset:0;stroke-opacity:1"
       d="m 59.400165,77.821551 c -3.296251,-0.878635 -7.528214,-2.054689 -9.772344,-4.078633 -2.087459,1.208772 -2.089763,2.478273 -2.089763,2.478273 l 0.886599,-7.910866 8.079835,0.252698 c 0,0 -1.998756,0.621415 -2.763563,1.707463 0.849981,2.275719 2.700874,5.404566 5.659196,7.550996 z"
       id="path5139-9" />
    <path
       id="path5141-0"
       d="m 51.154843,31.792612 c 1.530758,-3.048614 3.543052,-6.952878 5.981162,-8.738401 -0.75889,-2.289694 -2.00138,-2.55018 -2.00138,-2.55018 l 7.565133,2.477219 -1.89094,7.859512 c 0,0 -0.201855,-2.083371 -1.109629,-3.053103 -2.401036,0.369306 -5.840961,1.545062 -8.544271,4.004928 z"
       style="opacity:1;fill:#d40000;fill-opacity:1;stroke:none;stroke-width:0.26458335;stroke-miterlimit:4;stroke-dasharray:none;stroke-dashoffset:0;stroke-opacity:1" />
    <path
       style="opacity:1;fill:#d40000;fill-opacity:1;stroke:none;stroke-width:0.2910417;stroke-linecap:round;stroke-miterlimit:4;stroke-dasharray:none;stroke-dashoffset:0;stroke-opacity:1"
       d="m 38.813848,66.649525 c 0,0 -4.244171,12.315056 0.278307,18.7161 4.522477,6.401046 13.915315,5.218243 17.04626,4.174594 0.355763,1.548485 0.182449,2.525525 0.06885,3.48727 l 5.21897,-7.244404 -8.070883,-3.896289 c 1.338474,1.50908 1.65499,2.396485 1.878568,3.200522 0,0 -9.94945,2.643912 -13.776162,-2.017721 -4.731855,-5.76426 -3.617986,-12.662936 -2.643914,-16.420072 z"
       id="path4536" />
  </g>
</svg>
